<svg width="540px" height="540px" viewBox="0 0 540 540" version="1.1" xmlns="http://www.w3.org/2000/svg" xmlns:xlink="http://www.w3.org/1999/xlink">
    <g id="Page-1" stroke="none" stroke-width="1" fill="none" fill-rule="evenodd">
        <g id="Artboard" fill="#000000">
            <g id="black" transform="translate(18.000000, 18.000000)">
                <path d="M455.24682,362.194311 C455.24682,414.597867 412.23672,457.0832 359.17812,457.0832 L142.25022,457.0832 C89.19162,457.0832 46.17522,414.597867 46.17522,362.194311 L46.17522,147.944533 C46.17522,95.5409779 89.19162,53.0618667 142.25022,53.0618667 L359.17812,53.0618667 C412.23672,53.0618667 455.24682,95.5409779 455.24682,147.944533 L455.24682,362.194311 Z M356.69592,6.22097777 L144.72612,6.22097777 C64.79802,6.22097777 0.00252,70.2227556 0.00252,149.164089 L0.00252,358.510756 C0.00252,437.458311 64.79802,501.453867 144.72612,501.453867 L310.889215,501.453867 L356.69592,501.453867 C436.62402,501.453867 501.42582,437.458311 501.42582,358.510756 L501.42582,149.164089 C501.42582,70.2227556 436.62402,6.22097777 356.69592,6.22097777 Z" id="Fill-1"></path>
                <path d="M250.71228,338.365689 C204.13638,338.365689 166.37418,301.075911 166.37418,255.0688 C166.37418,209.067911 204.13638,171.771911 250.71228,171.771911 C297.28818,171.771911 335.05038,209.067911 335.05038,255.0688 C335.05038,301.075911 297.28818,338.365689 250.71228,338.365689 M250.71228,126.573689 C178.86078,126.573689 120.61098,184.104355 120.61098,255.0688 C120.61098,326.033244 178.86078,383.563911 250.71228,383.563911 C322.56378,383.563911 380.81358,326.033244 380.81358,255.0688 C380.81358,184.104355 322.56378,126.573689 250.71228,126.573689" id="Fill-4"></path>
                <path d="M385.15302,91.7510222 C368.41392,91.7510222 354.84372,105.153689 354.84372,121.686133 C354.84372,138.218578 368.41392,151.621245 385.15302,151.621245 C401.89212,151.621245 415.46232,138.218578 415.46232,121.686133 C415.46232,105.153689 401.89212,91.7510222 385.15302,91.7510222" id="Fill-6"></path>
            </g>
        </g>
    </g>
</svg>