<?xml version="1.0" encoding="UTF-8" standalone="no"?>
<svg width="350px" height="350px" viewBox="0 0 350 350" version="1.1" xmlns="http://www.w3.org/2000/svg" xmlns:xlink="http://www.w3.org/1999/xlink" xmlns:sketch="http://www.bohemiancoding.com/sketch/ns">
    <!-- Generator: Sketch 3.0.2 (7799) - http://www.bohemiancoding.com/sketch -->
    <title>6_white_roundrect</title>
    <description>Created with Sketch.</description>
    <defs></defs>
    <g id="Page-1" stroke="none" stroke-width="1" fill="none" fill-rule="evenodd" sketch:type="MSPage">
        <g id="roundrect-white" sketch:type="MSLayerGroup">
            <rect id="Rectangle-7" fill="#333333" sketch:type="MSShapeGroup" x="1" y="0" width="350" height="350" rx="20"></rect>
            <path d="M150.899155,264 C127.72713,264 106.158674,257.146306 88,245.399436 C91.2100662,245.781797 94.4764622,245.977406 97.7882146,245.977406 C117.012034,245.977406 134.704708,239.358442 148.74765,228.254499 C130.792348,227.920118 115.638904,215.950328 110.417791,199.501463 C112.922638,199.984949 115.493325,200.244039 118.137167,200.244039 C121.879805,200.244039 125.504664,199.738408 128.948096,198.792104 C110.176378,194.989171 96.0332126,178.255381 96.0332126,158.195501 C96.0332126,158.021298 96.0332126,157.847834 96.0361388,157.675107 C101.568894,160.776062 107.895388,162.638407 114.622042,162.853208 C103.612129,155.428926 96.3675336,142.756421 96.3675336,128.39282 C96.3675336,120.805408 98.3910165,113.693363 101.922967,107.578554 C122.160723,132.626831 152.395186,149.109651 186.497385,150.836176 C185.798017,147.806083 185.434434,144.646077 185.434434,141.401183 C185.434434,118.537083 203.806723,100 226.468122,100 C238.269578,100 248.933465,105.028257 256.418742,113.074796 C265.765097,111.217618 274.546692,107.771949 282.47456,103.027879 C279.410805,112.695388 272.905081,120.809099 264.432935,125.933315 C272.733165,124.932388 280.641282,122.706875 288,119.414001 C282.498701,127.716678 275.541607,135.008831 267.52522,140.846096 C267.604228,142.62134 267.643732,144.406917 267.643732,146.20209 C267.643732,200.9128 226.372289,264 150.899155,264" id="Fill-1" fill="#FFFFFF" sketch:type="MSShapeGroup"></path>
        </g>
    </g>
</svg>